<?xml version="1.0" standalone="no"?>
<!DOCTYPE svg PUBLIC "-//W3C//DTD SVG 20010904//EN"
 "http://www.w3.org/TR/2001/REC-SVG-20010904/DTD/svg10.dtd">
<svg version="1.0" xmlns="http://www.w3.org/2000/svg"
 width="500.000000pt" height="500.000000pt" viewBox="0 0 500.000000 500.000000"
 preserveAspectRatio="xMidYMid meet">
<metadata>
Created by potrace 1.14, written by Peter Selinger 2001-2017
</metadata>
<g transform="translate(0.000000,500.000000) scale(0.100000,-0.100000)"
fill="#000000" stroke="none">
<path d="M2309 4986 c-2 -2 -38 -7 -79 -10 -201 -19 -492 -95 -706 -186 -197
-83 -425 -220 -592 -354 -75 -61 -252 -231 -313 -301 -115 -134 -263 -355
-343 -513 -173 -343 -264 -731 -264 -1117 0 -193 10 -297 44 -474 66 -346 197
-658 402 -956 284 -412 709 -738 1190 -914 114 -42 306 -95 385 -106 23 -4 61
-11 84 -16 108 -23 465 -33 633 -17 501 49 1020 275 1395 607 471 418 777
1017 833 1630 14 157 7 496 -14 606 -45 246 -82 383 -151 555 -58 147 -108
244 -205 400 -118 191 -201 295 -360 452 -395 390 -888 627 -1466 704 -46 6
-467 15 -473 10z m-1835 -3531 c3 -9 0 -12 -9 -9 -7 3 -16 12 -19 19 -3 9 0
12 9 9 7 -3 16 -12 19 -19z m36 -110 c0 -8 -2 -15 -4 -15 -2 0 -6 7 -10 15 -3
8 -1 15 4 15 6 0 10 -7 10 -15z"/>
</g>
</svg>
